# xmcd
#
# Track frame offsets: 
#        150
#        16742
#        33997
#        53385
#        71932
#        91057
#        106407
#        125630
#        142760
#        168222
#        188900
#        205180
#
# Disc length: 2981 seconds
#
# Revision: 0
# Processed by: cddbd v1.5.2PL0 Copyright (c) Steve Scherf et al.
# Submitted via: ExactAudioCopyFreeDBPlugin 1.0
#
DISCID=960ba30c
DTITLE=Roberto Vecchioni - I Concerti Live Roberto Vecchioni 5Luglio 1
DTITLE=984
DYEAR=2001
DGENRE=Acoustic
TTITLE0=Samarcanda
TTITLE1=Luci A San Siro
TTITLE2=Dentro Gli Occhi
TTITLE3=Stranamore
TTITLE4=Canzone Per Sergio
TTITLE5=A Te
TTITLE6=Vorrei
TTITLE7=Mi Manchi
TTITLE8=Figlia
TTITLE9=Sestri Levante
TTITLE10=Arthur Rimbaud
TTITLE11=Sestri Levante
EXTD=
EXTT0=
EXTT1=
EXTT2=
EXTT3=
EXTT4=
EXTT5=
EXTT6=
EXTT7=
EXTT8=
EXTT9=
EXTT10=
EXTT11=
PLAYORDER=
